# xmcd CD database file
#
# Track frame offsets:
#	150
#	18588
#	34375
#	47050
#	64488
#	81388
#	100039
#	112014
#	123352
#	135639
#	146427
#	159502
#
# Disc length: 2317 seconds
#
# Revision: 0
# Processed by: cddbd v1.5.2PL0 Copyright (c) Steve Scherf et al.
# Submitted via: CDex 1.50beta10
#
DISCID=aa090b0c
DTITLE=Incantation - Panpipes Of The Andes
DYEAR=2003
DGENRE=New Age
TTITLE0=On The Wing Of A Condor
TTITLE1=Sonccuiman
TTITLE2=Sikuriadas
TTITLE3=High Flying Bird
TTITLE4=Dolencias
TTITLE5=Winds On The Mountain
TTITLE6=Amores Hallaras
TTITLE7=El Pajaro Madrugador
TTITLE8=Papel De Plata
TTITLE9=The Condor Dance
TTITLE10=Cacharpaya
TTITLE11=Friends Of The Andes
EXTD=YEAR: 2003
EXTT0=
EXTT1=
EXTT2=
EXTT3=
EXTT4=
EXTT5=
EXTT6=
EXTT7=
EXTT8=
EXTT9=
EXTT10=
EXTT11=
PLAYORDER=
